<svg width="109" height="21" viewBox="0 0 109 21" fill="none" xmlns="http://www.w3.org/2000/svg">
<g clip-path="url(#clip0_16_8)">
<path d="M6.63029 2.97988H4.80054V3.93532H6.63029V8.9013H7.77351V0.171627H6.63029V2.97988Z" fill="black"/>
<path d="M3.76782 2.37V0.880199H2.62169V2.37C2.62169 4.0108 1.749 5.58193 0.498135 6.19466L0.407959 6.23824L1.12648 7.14432L1.18466 7.11528C2.07771 6.65644 2.7875 5.76488 3.20639 4.58874C3.61365 5.69225 4.31472 6.53445 5.19612 6.97296L5.2572 7.00201L5.93212 6.0843L5.84191 6.04366C4.59979 5.46867 3.76782 3.99048 3.76782 2.37Z" fill="black"/>
<path d="M8.98944 4.62648H12.3609V5.15504H9.90867V6.0524H14.8045V6.50834H9.92613V8.81419H16.1688V7.9081H11.0548V7.35922H15.9244V5.15504H13.5071V4.62648H16.8902V3.68846H8.98944V4.62648Z" fill="black"/>
<path d="M12.9427 3.38643C14.9325 3.38643 16.0728 2.82014 16.0728 1.82984C16.0728 0.842456 14.9325 0.273254 12.9427 0.273254C10.953 0.273254 9.81268 0.839551 9.81268 1.82984C9.81268 2.82014 10.953 3.38643 12.9427 3.38643ZM10.9879 1.82984C10.9879 1.40004 11.6832 1.1619 12.9456 1.1619C14.2081 1.1619 14.9005 1.40004 14.9005 1.82984C14.9005 2.25965 14.2052 2.49779 12.9456 2.49779C11.6802 2.49779 10.9879 2.26255 10.9879 1.82984Z" fill="black"/>
<path d="M20.8028 2.37871V0.897629H19.6653V2.37871C19.6653 4.04566 18.7578 5.61677 17.4574 6.2034L17.3672 6.24403L18.0392 7.1908L18.1003 7.16175C19.0632 6.69418 19.8195 5.7823 20.2472 4.5829C20.6718 5.68067 21.4224 6.54607 22.3329 6.97296L22.394 7.00201L23.0601 6.09303L22.9699 6.05239C21.6958 5.47736 20.8028 3.96725 20.8028 2.37871Z" fill="black"/>
<path d="M24.6892 0.180344H23.543V8.91003H24.6892V0.180344Z" fill="black"/>
<path d="M31.4438 4.641L31.3071 3.68845L31.2256 3.70297C29.9806 3.91207 28.9246 3.95563 27.54 3.95853V3.17443H30.4664V0.592703H26.3938V1.54815H29.3493V2.27707H26.4113V4.91399H27.2112C28.8751 4.91399 30.03 4.87332 31.3623 4.65842L31.4438 4.641Z" fill="black"/>
<path d="M32.0605 6.18598H28.5523V5.30604H27.4178V8.78514H33.1863V5.30604H32.0605V6.18598ZM28.5523 7.84131V7.11238H32.0576V7.84131H28.5523Z" fill="black"/>
<path d="M33.1863 0.191948H32.0489V5.07083H33.1863V0.191948Z" fill="black"/>
<path d="M34.92 6.80165H39.0972V0.993456H34.92V6.80165ZM37.9802 1.92857V5.85488H36.037V1.92857H37.9802Z" fill="black"/>
<path d="M41.6661 0.180344H40.5198V8.91003H41.6661V0.180344Z" fill="black"/>
<path d="M43.7751 3.34869C45.1888 3.18025 46.3173 2.61976 46.902 1.80372C47.4867 2.61976 48.6156 3.18025 50.0293 3.34869L50.0872 3.3574L50.4887 2.45423L50.3781 2.44261C48.729 2.27998 47.4867 1.46684 47.4867 0.554954V0.2297H46.323V0.554954C46.323 1.46684 45.0782 2.27998 43.4287 2.44261L43.3181 2.45423L43.7196 3.3574L43.7751 3.34869Z" fill="black"/>
<path d="M42.946 4.58874H46.3202V5.14631H43.8653V6.04366H48.7637V6.51703H43.8824V8.81415H50.1281V7.9081H45.0113V7.36795H49.8808V5.14631H47.4634V4.58874H50.8555V3.65071H42.946V4.58874Z" fill="black"/>
<path d="M55.0094 3.81043L54.9947 3.89465L56.1118 4.01662L56.1265 3.94402C56.3358 2.83175 56.3358 1.97215 56.3358 1.40295V0.830845H51.8735V1.78629H55.2158C55.2015 2.33806 55.1664 2.96825 55.0094 3.81043Z" fill="black"/>
<path d="M53.785 6.03497H52.6385V8.72994H58.6165V7.77452H53.785V6.03497Z" fill="black"/>
<path d="M58.3402 2.89567V0.18906H57.197V6.76391H58.3402V3.85983H59.4777V2.89567H58.3402Z" fill="black"/>
<path d="M56.909 5.13179L56.8274 4.26348L56.7433 4.278C55.8996 4.41158 54.9804 4.46675 54.1831 4.49869V2.78239H53.0575V4.53353C52.4814 4.55096 51.9261 4.55096 51.4344 4.55096H51.341L51.4663 5.50641H51.536C52.9293 5.50641 54.9918 5.46867 56.8364 5.14631L56.909 5.13179Z" fill="black"/>
<path d="M5.41718 19.3183C4.62884 19.9862 3.56999 19.9949 3.27328 19.9949C2.88347 19.9949 1.63262 19.9775 0.722106 19.022C0.611567 18.903 0.489391 18.7461 0.405029 18.5951L1.43481 17.8836C1.7228 18.3106 2.26096 18.8652 3.46527 18.8652C3.52054 18.8652 3.75326 18.8652 3.94816 18.8188C4.08779 18.7926 4.72778 18.6154 4.72778 18.0027C4.72778 17.9388 4.71905 17.7617 4.60848 17.6136C4.38449 17.3174 3.79107 17.2331 3.46818 17.1605L2.68857 16.9834C2.35404 16.9078 1.99333 16.8353 1.69661 16.6784C1.39117 16.5216 0.759924 16.1034 0.759924 15.1596C0.759924 15.0115 0.777378 14.5846 1.0101 14.1955C1.30681 13.6959 2.02242 13.121 3.34891 13.121C3.93361 13.121 5.08556 13.2139 5.99315 14.4452L4.98086 15.1973C4.77723 14.8721 4.31178 14.2245 3.282 14.2245C3.21801 14.2245 2.39186 14.2158 2.12132 14.724C2.06605 14.8256 2.04569 14.9186 2.04569 15.0202C2.04569 15.1306 2.07478 15.2235 2.13005 15.3164C2.28714 15.5865 2.64785 15.6678 3.25291 15.7985L3.9307 15.9466C4.55324 16.086 5.23974 16.2719 5.6761 16.7801C5.86227 16.9834 6.05717 17.2796 6.05717 17.8836C6.05717 18.4732 5.87389 18.9291 5.41718 19.3183Z" fill="#949494"/>
<path d="M7.1073 19.8264V13.2864H11.7646V14.3813H8.31163V15.9175H11.4766V16.9746H8.31163V18.7229H11.9973V19.8264H7.1073Z" fill="#949494"/>
<path d="M17.2829 15.1015C16.9396 14.5468 16.4218 14.239 15.7615 14.239C15.3542 14.239 15.0546 14.3697 14.9266 14.4336C14.4612 14.6833 13.8881 15.2961 13.8881 16.5187C13.8881 16.7685 13.8969 17.9737 14.8161 18.5748C15.2146 18.8333 15.6131 18.8536 15.7819 18.8536C15.9127 18.8536 16.2095 18.8449 16.5324 18.6968C17.0152 18.4732 17.6465 17.9185 17.6727 16.6872C17.6843 16.1499 17.5796 15.5749 17.2829 15.1015ZM17.9985 19.0569C17.8501 19.2137 17.4691 19.5942 16.8844 19.8062C16.6807 19.8816 16.2997 19.992 15.744 19.992C14.8161 19.992 14.1121 19.6871 13.4983 18.9814C12.8874 18.2873 12.6256 17.4713 12.6256 16.5652C12.6256 16.3532 12.6343 15.8508 12.8205 15.2961C13.2481 13.9893 14.3681 13.121 15.7702 13.121C17.0327 13.121 17.7832 13.8063 18.0887 14.1577C18.4319 14.5468 18.9148 15.3048 18.9061 16.5565C18.909 16.963 18.8625 18.1218 17.9985 19.0569Z" fill="#949494"/>
<path d="M25.2447 18.4935C25.0324 19.1498 24.279 19.9949 22.6732 19.9949C21.9024 19.9949 21.1344 19.809 20.5962 19.2166C20.5119 19.1324 20.2908 18.8652 20.1773 18.5138C20.0755 18.1798 20.0755 17.8749 20.0755 17.1808V13.2864H21.3089V17.3057C21.3089 17.6948 21.3089 17.8343 21.3729 18.0288C21.4922 18.418 21.8442 18.8071 22.7169 18.8071C22.8739 18.8071 23.7757 18.8071 24.0433 18.0666C24.1161 17.8546 24.1277 17.6774 24.1277 17.2418V13.2864H25.3524V17.0559C25.3553 17.8081 25.364 18.1218 25.2447 18.4935Z" fill="#949494"/>
<path d="M26.8593 19.8264V13.2864H28.0926V18.7142H30.6904V19.8264H26.8593Z" fill="#949494"/>
<path d="M39.2078 19.8264L39.327 14.4539L37.9075 19.8264H36.805L35.3825 14.4539L35.5046 19.8264H34.3091V13.2864H36.0893L37.3693 18.1392L38.6318 13.2864H40.4034V19.8264H39.2078Z" fill="#949494"/>
<path d="M47.0477 18.4935C46.8351 19.1498 46.0819 19.9949 44.476 19.9949C43.7053 19.9949 42.9371 19.809 42.3989 19.2166C42.3149 19.1324 42.0937 18.8652 41.9803 18.5138C41.8783 18.1798 41.8783 17.8749 41.8783 17.1808V13.2864H43.1117V17.3057C43.1117 17.6948 43.1117 17.8343 43.1757 18.0288C43.2977 18.418 43.6498 18.8071 44.5225 18.8071C44.6796 18.8071 45.5813 18.8071 45.849 18.0666C45.922 17.8546 45.9334 17.6774 45.9334 17.2418V13.2864H47.1582V17.0559C47.1582 17.8081 47.1668 18.1218 47.0477 18.4935Z" fill="#949494"/>
<path d="M53.1215 19.3183C52.3333 19.9862 51.2741 19.9949 50.9775 19.9949C50.5879 19.9949 49.3369 19.9775 48.4263 19.022C48.3157 18.903 48.1937 18.7461 48.1093 18.5951L49.139 17.8836C49.4271 18.3106 49.9652 18.8652 51.1697 18.8652C51.2247 18.8652 51.4573 18.8652 51.6523 18.8188C51.7919 18.7926 52.432 18.6154 52.432 18.0027C52.432 17.9388 52.4234 17.7617 52.3129 17.6136C52.0889 17.3174 51.4952 17.2331 51.1725 17.1605L50.3928 16.9834C50.0583 16.9078 49.6976 16.8353 49.401 16.6784C49.0954 16.5216 48.4642 16.1034 48.4642 15.1596C48.4642 15.0115 48.4818 14.5846 48.7143 14.1955C49.0109 13.6959 49.7266 13.121 51.053 13.121C51.638 13.121 52.7898 13.2139 53.6972 14.4452L52.685 15.1973C52.4814 14.8721 52.0159 14.2245 50.9861 14.2245C50.9224 14.2245 50.0962 14.2158 49.8257 14.724C49.7702 14.8256 49.7498 14.9186 49.7498 15.0202C49.7498 15.1306 49.7792 15.2235 49.8343 15.3164C49.9914 15.5865 50.352 15.6678 50.9571 15.7985L51.6348 15.9466C52.2574 16.086 52.9441 16.2719 53.3802 16.7801C53.5667 16.9834 53.7613 17.2796 53.7613 17.8836C53.7641 18.4732 53.5781 18.9291 53.1215 19.3183Z" fill="#949494"/>
<path d="M54.8115 19.8264V13.2864H59.4688V14.3813H56.0159V15.9175H59.1807V16.9746H56.0159V18.7229H59.6985V19.8264H54.8115Z" fill="#949494"/>
<path d="M65.7957 18.4935C65.5835 19.1498 64.8299 19.9949 63.2244 19.9949C62.4533 19.9949 61.6855 19.809 61.1473 19.2166C61.0629 19.1324 60.8417 18.8652 60.7283 18.5138C60.6267 18.1798 60.6267 17.8749 60.6267 17.1808V13.2864H61.8601V17.3057C61.8601 17.6948 61.8601 17.8343 61.9241 18.0288C62.0433 18.418 62.3954 18.8071 63.2681 18.8071C63.4252 18.8071 64.3269 18.8071 64.5945 18.0666C64.6671 17.8546 64.679 17.6774 64.679 17.2418V13.2864H65.9034V17.0559C65.9062 17.8081 65.9152 18.1218 65.7957 18.4935Z" fill="#949494"/>
<path d="M72.2539 19.8264L72.373 14.4539L70.9536 19.8264H69.8512L68.4313 14.4539L68.5509 19.8264H67.355V13.2864H69.1356L70.4155 18.1392L71.6778 13.2864H73.4493V19.8264H72.2539Z" fill="#949494"/>
<path d="M81.9582 15.1015C81.6146 14.5468 81.0969 14.239 80.4367 14.239C80.0295 14.239 79.7297 14.3697 79.602 14.4336C79.1364 14.6833 78.5632 15.2961 78.5632 16.5187C78.5632 16.7685 78.5722 17.9737 79.4914 18.5748C79.8896 18.8333 80.2882 18.8536 80.4571 18.8536C80.5881 18.8536 80.8847 18.8449 81.2074 18.6968C81.6905 18.4732 82.3217 17.9185 82.3478 16.6872C82.3568 16.1499 82.2548 15.5749 81.9582 15.1015ZM82.6709 19.0569C82.5224 19.2137 82.1413 19.5942 81.5567 19.8062C81.3531 19.8816 80.972 19.992 80.4163 19.992C79.4885 19.992 78.7843 19.6871 78.1707 18.9814C77.5595 18.2873 77.298 17.4713 77.298 16.5652C77.298 16.3532 77.3065 15.8508 77.4926 15.2961C77.9206 13.9893 79.0405 13.121 80.4424 13.121C81.7052 13.121 82.4555 13.8063 82.7611 14.1577C83.1042 14.5468 83.5873 15.3048 83.5783 16.5565C83.5812 16.963 83.5347 18.1218 82.6709 19.0569Z" fill="#949494"/>
<path d="M85.9754 14.3813V16.0105H88.7098V17.0559H85.9754V19.8264H84.7595V13.2864H89.0908V14.3813H85.9754Z" fill="#949494"/>
<path d="M94.8799 14.4626L93.9693 17.4713H95.7788L94.8799 14.4626ZM96.4854 19.8264L96.1043 18.5487H93.6465L93.2655 19.8264H91.9476L94.1643 13.2864H95.5548L97.7918 19.8264H96.4854Z" fill="#949494"/>
<path d="M101.829 14.5381C101.617 14.3987 101.364 14.3435 100.846 14.3435H99.8543V16.3822H100.29C101.006 16.3822 101.451 16.3822 101.748 16.2254C101.934 16.1238 102.239 15.8827 102.239 15.3541C102.237 15.1857 102.219 14.7966 101.829 14.5381ZM102.248 19.8264L100.96 17.3986H99.8571V19.8264H98.6413V13.2864H101.323C101.62 13.2864 102.501 13.3155 103.086 14.0851C103.467 14.5846 103.485 15.1509 103.485 15.3629C103.485 15.4645 103.476 15.7869 103.365 16.0947C103.264 16.3648 102.947 16.9282 102.196 17.1605L103.653 19.8264H102.248Z" fill="#949494"/>
<path d="M107.089 14.39V19.8264H105.864V14.39H104.084V13.2864H108.898V14.39H107.089Z" fill="#949494"/>
</g>
<defs>
<clipPath id="clip0_16_8">
<rect width="108.936" height="20.4" fill="white"/>
</clipPath>
</defs>
</svg>
